<svg width="456" height="456" viewBox="0 0 456 456" fill="none" xmlns="http://www.w3.org/2000/svg">
<g clip-path="url(#clip0_126_4203)">
<mask id="mask0_126_4203" style="mask-type:luminance" maskUnits="userSpaceOnUse" x="0" y="0" width="456" height="456">
<path d="M456 0H0V456H456V0Z" fill="white"/>
</mask>
<g mask="url(#mask0_126_4203)">
<mask id="mask1_126_4203" style="mask-type:luminance" maskUnits="userSpaceOnUse" x="23" y="149" width="37" height="37">
<path d="M29.0293 149.185L59.7991 154.611L54.3735 185.381L23.6038 179.955L29.0293 149.185Z" fill="white"/>
</mask>
<g mask="url(#mask1_126_4203)">
<path d="M36.1074 159.507L51.1229 169.011L47.2949 175.059L32.2794 165.555L36.1074 159.507Z" fill="white"/>
</g>
<mask id="mask2_126_4203" style="mask-type:luminance" maskUnits="userSpaceOnUse" x="177" y="69" width="43" height="42">
<path d="M190.684 69.368L219.227 82.0762L206.519 110.619L177.976 97.9112L190.684 69.368Z" fill="white"/>
</mask>
<g mask="url(#mask2_126_4203)">
<path d="M195.055 81.0955L207.325 93.9499L202.148 98.892L189.878 86.0376L195.055 81.0955Z" fill="white"/>
</g>
<mask id="mask3_126_4203" style="mask-type:luminance" maskUnits="userSpaceOnUse" x="333" y="107" width="44" height="43">
<path d="M333.915 122.391L361.242 107.244L376.389 134.571L349.062 149.718L333.915 122.391Z" fill="white"/>
</mask>
<g mask="url(#mask3_126_4203)">
<path d="M345.911 125.958L363.561 123.895L364.393 131.004L346.742 133.067L345.911 125.958Z" fill="white"/>
</g>
<mask id="mask4_126_4203" style="mask-type:luminance" maskUnits="userSpaceOnUse" x="34" y="121" width="49" height="50">
<path d="M34.7979 121.899H82.9312V170.033H34.7979V121.899Z" fill="white"/>
</mask>
<g mask="url(#mask4_126_4203)">
<path d="M69.6054 145.966C69.6054 151.898 64.7964 156.706 58.8645 156.706C52.9321 156.706 48.1235 151.898 48.1235 145.966C48.1235 140.034 52.9321 135.225 58.8645 135.225C64.7964 135.225 69.6054 140.034 69.6054 145.966Z" fill="#1C8D57"/>
</g>
<mask id="mask5_126_4203" style="mask-type:luminance" maskUnits="userSpaceOnUse" x="349" y="128" width="50" height="50">
<path d="M349.644 128.035H398.622V177.012H349.644V128.035Z" fill="white"/>
</mask>
<g mask="url(#mask5_126_4203)">
<path d="M385.062 152.524C385.062 158.56 380.169 163.452 374.133 163.452C368.096 163.452 363.204 158.56 363.204 152.524C363.204 146.488 368.096 141.595 374.133 141.595C380.169 141.595 385.062 146.488 385.062 152.524Z" fill="#1C8D57"/>
</g>
<mask id="mask6_126_4203" style="mask-type:luminance" maskUnits="userSpaceOnUse" x="153" y="81" width="25" height="25">
<path d="M153.062 81.5163H177.129V105.583H153.062V81.5163Z" fill="white"/>
</mask>
<g mask="url(#mask6_126_4203)">
<path d="M170.466 93.5496C170.466 96.5156 168.062 98.9198 165.096 98.9198C162.129 98.9198 159.725 96.5156 159.725 93.5496C159.725 90.5836 162.129 88.1794 165.096 88.1794C168.062 88.1794 170.466 90.5836 170.466 93.5496Z" fill="#1C8D57"/>
</g>
<mask id="mask7_126_4203" style="mask-type:luminance" maskUnits="userSpaceOnUse" x="160" y="44" width="39" height="39">
<path d="M160.288 53.3374L189.36 44.4493L198.248 73.521L169.176 82.4091L160.288 53.3374Z" fill="white"/>
</mask>
<g mask="url(#mask7_126_4203)">
<path d="M173.729 68.2051L178.151 66.2755L180.081 70.6977L184.044 68.9684L182.114 64.5462L186.537 62.6166L184.807 58.6531L180.385 60.5827L178.456 56.1605L174.492 57.8898L176.422 62.3119L171.999 64.2415L173.729 68.2051Z" fill="#E16104"/>
</g>
<mask id="mask8_126_4203" style="mask-type:luminance" maskUnits="userSpaceOnUse" x="78" y="117" width="38" height="39">
<path d="M78.1685 126.217L107.391 117.838L115.77 147.06L86.5478 155.439L78.1685 126.217Z" fill="white"/>
</mask>
<g mask="url(#mask8_126_4203)">
<path d="M91.3473 141.317L95.8027 139.465L97.6547 143.92L101.648 142.26L99.7956 137.805L104.251 135.953L102.591 131.96L98.1356 133.812L96.2836 129.357L92.2908 131.017L94.1428 135.472L89.6873 137.324L91.3473 141.317Z" fill="#E16104"/>
</g>
<mask id="mask9_126_4203" style="mask-type:luminance" maskUnits="userSpaceOnUse" x="201" y="68" width="26" height="26">
<path d="M211.921 68.6066L226.973 78.759L216.82 93.8107L201.768 83.6582L211.921 68.6066Z" fill="white"/>
</mask>
<g mask="url(#mask9_126_4203)">
<path d="M211.039 79.0251C212.553 78.7216 214.026 79.7029 214.33 81.2168C214.633 82.7308 213.652 84.2039 212.138 84.5074L212.704 87.3301C215.777 86.7141 217.769 83.7238 217.153 80.6509C216.536 77.578 213.546 75.5865 210.473 76.2025L211.039 79.0251Z" fill="#FFBB0D"/>
</g>
<mask id="mask10_126_4203" style="mask-type:luminance" maskUnits="userSpaceOnUse" x="90" y="82" width="45" height="45">
<path d="M121.834 82.8589L134.488 114.177L103.17 126.831L90.5163 95.5123L121.834 82.8589Z" fill="white"/>
</mask>
<g mask="url(#mask10_126_4203)">
<path d="M109.635 98.0109C112.286 99.1179 113.538 102.164 112.431 104.815C111.324 107.466 108.278 108.717 105.627 107.61L103.563 112.553C108.944 114.799 115.127 112.259 117.373 106.879C119.62 101.498 117.08 95.3154 111.699 93.0687L109.635 98.0109Z" fill="#FFBB0D"/>
</g>
<mask id="mask11_126_4203" style="mask-type:luminance" maskUnits="userSpaceOnUse" x="274" y="54" width="61" height="61">
<path d="M274.708 76.9374L312.737 54.9818L334.692 93.01L296.664 114.966L274.708 76.9374Z" fill="white"/>
</mask>
<g mask="url(#mask11_126_4203)">
<path d="M296.421 89.9008C297.367 86.2878 301.062 84.1256 304.675 85.0709C308.288 86.0164 310.45 89.7112 309.504 93.3242L316.24 95.0869C318.159 87.7539 313.771 80.2536 306.438 78.3348C299.104 76.4159 291.605 80.8052 289.686 88.1382L296.421 89.9008Z" fill="#FFBB0D"/>
</g>
<mask id="mask12_126_4203" style="mask-type:luminance" maskUnits="userSpaceOnUse" x="191" y="26" width="95" height="96">
<path d="M255.803 121.02L191.516 91.0425L221.494 26.7551L285.781 56.7328L255.803 121.02Z" fill="white"/>
</mask>
<g mask="url(#mask12_126_4203)">
<path d="M223.417 79.7099L253.696 84.8663L243.022 56.0658L223.417 79.7099Z" fill="#28B594"/>
</g>
<mask id="mask13_126_4203" style="mask-type:luminance" maskUnits="userSpaceOnUse" x="371" y="134" width="65" height="66">
<path d="M435.753 167.186L403.509 199.43L371.265 167.186L403.509 134.942L435.753 167.186Z" fill="white"/>
</mask>
<g mask="url(#mask13_126_4203)">
<path d="M403.677 177.667L413.45 160.51L393.705 160.626L403.677 177.667Z" fill="#28B594"/>
</g>
<mask id="mask14_126_4203" style="mask-type:luminance" maskUnits="userSpaceOnUse" x="113" y="80" width="69" height="68">
<path d="M142.104 80.0135L181.045 108.306L152.753 147.246L113.812 118.954L142.104 80.0135Z" fill="white"/>
</mask>
<g mask="url(#mask14_126_4203)">
<path d="M158.328 111.724L138.826 104.369L142.207 124.935L158.328 111.724Z" fill="#28B594"/>
</g>
<mask id="mask15_126_4203" style="mask-type:luminance" maskUnits="userSpaceOnUse" x="280" y="82" width="61" height="60">
<path d="M294.781 82.3778L340.408 96.3272L326.458 141.954L280.832 128.004L294.781 82.3778Z" fill="white"/>
</mask>
<g mask="url(#mask15_126_4203)">
<path d="M320.22 106.862L299.569 106.262L309.375 124.446L320.22 106.862Z" fill="#28B594"/>
</g>
<mask id="mask16_126_4203" style="mask-type:luminance" maskUnits="userSpaceOnUse" x="121" y="136" width="32" height="32">
<path d="M121.067 136.612H152.311V167.856H121.067V136.612Z" fill="white"/>
</mask>
<g mask="url(#mask16_126_4203)">
<path d="M128.1 147.995L145.819 149.337L145.279 156.474L127.559 155.132L128.1 147.995Z" fill="white"/>
</g>
<mask id="mask17_126_4203" style="mask-type:luminance" maskUnits="userSpaceOnUse" x="97" y="193" width="34" height="34">
<path d="M97.3286 224.838L98.9638 193.636L130.165 195.271L128.53 226.473L97.3286 224.838Z" fill="white"/>
</mask>
<g mask="url(#mask17_126_4203)">
<path d="M109.063 218.41L111.331 200.785L118.43 201.698L116.162 219.324L109.063 218.41Z" fill="white"/>
</g>
<mask id="mask18_126_4203" style="mask-type:luminance" maskUnits="userSpaceOnUse" x="148" y="115" width="45" height="45">
<path d="M173.816 115.274L192.619 140.227L167.666 159.031L148.863 134.078L173.816 115.274Z" fill="white"/>
</mask>
<g mask="url(#mask18_126_4203)">
<path d="M168.958 127.741L178.55 142.701L172.524 146.564L162.932 131.604L168.958 127.741Z" fill="white"/>
</g>
<mask id="mask19_126_4203" style="mask-type:luminance" maskUnits="userSpaceOnUse" x="217" y="93" width="44" height="43">
<path d="M244.917 93.2927L260.539 120.351L233.481 135.973L217.859 108.915L244.917 93.2927Z" fill="white"/>
</mask>
<g mask="url(#mask19_126_4203)">
<path d="M238.576 105.074L246.273 121.091L239.822 124.192L232.124 108.175L238.576 105.074Z" fill="white"/>
</g>
<mask id="mask20_126_4203" style="mask-type:luminance" maskUnits="userSpaceOnUse" x="273" y="159" width="34" height="34">
<path d="M273.986 159.32H306.92V192.253H273.986V159.32Z" fill="white"/>
</mask>
<g mask="url(#mask20_126_4203)">
<path d="M297.802 175.787C297.802 179.845 294.512 183.135 290.453 183.135C286.394 183.135 283.104 179.845 283.104 175.787C283.104 171.728 286.394 168.438 290.453 168.438C294.512 168.438 297.802 171.728 297.802 175.787Z" fill="#1C8D57"/>
</g>
<mask id="mask21_126_4203" style="mask-type:luminance" maskUnits="userSpaceOnUse" x="146" y="174" width="24" height="24">
<path d="M146.231 174.294H169.876V197.939H146.231V174.294Z" fill="white"/>
</mask>
<g mask="url(#mask21_126_4203)">
<path d="M163.33 186.117C163.33 189.03 160.968 191.393 158.054 191.393C155.139 191.393 152.777 189.03 152.777 186.117C152.777 183.203 155.139 180.841 158.054 180.841C160.968 180.841 163.33 183.203 163.33 186.117Z" fill="#1C8D57"/>
</g>
<mask id="mask22_126_4203" style="mask-type:luminance" maskUnits="userSpaceOnUse" x="289" y="126" width="26" height="26">
<path d="M289.141 126.552H314.474V151.885H289.141V126.552Z" fill="white"/>
</mask>
<g mask="url(#mask22_126_4203)">
<path d="M307.461 139.218C307.461 142.341 304.93 144.871 301.807 144.871C298.685 144.871 296.154 142.341 296.154 139.218C296.154 136.096 298.685 133.566 301.807 133.566C304.93 133.566 307.461 136.096 307.461 139.218Z" fill="#1C8D57"/>
</g>
<mask id="mask23_126_4203" style="mask-type:luminance" maskUnits="userSpaceOnUse" x="74" y="184" width="25" height="26">
<path d="M74.4609 184.875H98.9498V209.364H74.4609V184.875Z" fill="white"/>
</mask>
<g mask="url(#mask23_126_4203)">
<path d="M92.1701 197.12C92.1701 200.138 89.7234 202.584 86.7054 202.584C83.6872 202.584 81.2407 200.138 81.2407 197.12C81.2407 194.102 83.6872 191.655 86.7054 191.655C89.7234 191.655 92.1701 194.102 92.1701 197.12Z" fill="#1C8D57"/>
</g>
<mask id="mask24_126_4203" style="mask-type:luminance" maskUnits="userSpaceOnUse" x="331" y="161" width="25" height="25">
<path d="M331.335 161.894H355.402V185.96H331.335V161.894Z" fill="white"/>
</mask>
<g mask="url(#mask24_126_4203)">
<path d="M348.739 173.927C348.739 176.893 346.335 179.297 343.369 179.297C340.402 179.297 337.998 176.893 337.998 173.927C337.998 170.961 340.402 168.557 343.369 168.557C346.335 168.557 348.739 170.961 348.739 173.927Z" fill="#1C8D57"/>
</g>
<mask id="mask25_126_4203" style="mask-type:luminance" maskUnits="userSpaceOnUse" x="249" y="97" width="25" height="25">
<path d="M249.455 97.2236H273.944V121.713H249.455V97.2236Z" fill="white"/>
</mask>
<g mask="url(#mask25_126_4203)">
<path d="M267.164 109.468C267.164 112.486 264.718 114.933 261.7 114.933C258.681 114.933 256.235 112.486 256.235 109.468C256.235 106.45 258.681 104.004 261.7 104.004C264.718 104.004 267.164 106.45 267.164 109.468Z" fill="#1C8D57"/>
</g>
<mask id="mask26_126_4203" style="mask-type:luminance" maskUnits="userSpaceOnUse" x="301" y="158" width="43" height="43">
<path d="M318.482 158.066L343.978 174.623L327.42 200.118L301.925 183.561L318.482 158.066Z" fill="white"/>
</mask>
<g mask="url(#mask26_126_4203)">
<path d="M315.68 179.881L320.416 180.802L319.496 185.538L323.741 186.363L324.661 181.627L329.398 182.548L330.223 178.303L325.486 177.382L326.407 172.646L322.162 171.821L321.241 176.557L316.505 175.636L315.68 179.881Z" fill="#E16104"/>
</g>
<mask id="mask27_126_4203" style="mask-type:luminance" maskUnits="userSpaceOnUse" x="103" y="168" width="51" height="50">
<path d="M123.63 168.316L153.033 188.149L133.2 217.552L103.797 197.72L123.63 168.316Z" fill="white"/>
</mask>
<g mask="url(#mask27_126_4203)">
<path d="M120.643 193.309C122.687 191.091 126.142 190.95 128.36 192.994C130.578 195.038 130.719 198.493 128.675 200.711L132.81 204.522C136.959 200.02 136.673 193.008 132.171 188.858C127.669 184.709 120.656 184.996 116.507 189.498L120.643 193.309Z" fill="#FFBB0D"/>
</g>
<mask id="mask28_126_4203" style="mask-type:luminance" maskUnits="userSpaceOnUse" x="341" y="172" width="45" height="44">
<path d="M341.728 188.061L369.517 172.016L385.562 199.806L357.772 215.85L341.728 188.061Z" fill="white"/>
</mask>
<g mask="url(#mask28_126_4203)">
<path d="M360.866 200.402C359.874 197.86 361.13 194.995 363.671 194.002C366.213 193.009 369.079 194.265 370.072 196.807L374.811 194.955C372.796 189.796 366.98 187.247 361.82 189.262C356.66 191.278 354.112 197.094 356.127 202.254L360.866 200.402Z" fill="#FFBB0D"/>
</g>
<mask id="mask29_126_4203" style="mask-type:luminance" maskUnits="userSpaceOnUse" x="301" y="134" width="40" height="39">
<path d="M340.1 163.833L310.472 172.329L301.976 142.701L331.604 134.205L340.1 163.833Z" fill="white"/>
</mask>
<g mask="url(#mask29_126_4203)">
<path d="M321.962 160.321L327.105 148.005L313.868 149.709L321.962 160.321Z" fill="#28B594"/>
</g>
<mask id="mask30_126_4203" style="mask-type:luminance" maskUnits="userSpaceOnUse" x="78" y="143" width="56" height="56">
<path d="M126.817 143.614L133.575 191.697L85.4915 198.455L78.7339 150.372L126.817 143.614Z" fill="white"/>
</mask>
<g mask="url(#mask30_126_4203)">
<path d="M117.36 171.14L99.2748 160.417L99.0312 181.441L117.36 171.14Z" fill="#28B594"/>
</g>
<mask id="mask31_126_4203" style="mask-type:luminance" maskUnits="userSpaceOnUse" x="192" y="92" width="39" height="39">
<path d="M202.557 92.5436L230.502 102.166L220.88 130.111L192.935 120.489L202.557 92.5436Z" fill="white"/>
</mask>
<g mask="url(#mask31_126_4203)">
<path d="M214.873 105.279L204.059 112.125L215.394 118.066L214.873 105.279Z" fill="#28B594"/>
</g>
<mask id="mask32_126_4203" style="mask-type:luminance" maskUnits="userSpaceOnUse" x="195" y="272" width="38" height="38">
<path d="M195.623 282.168L222.922 272.768L232.321 300.067L205.022 309.467L195.623 282.168Z" fill="white"/>
</mask>
<g mask="url(#mask32_126_4203)">
<path d="M205.275 292.766L219.098 283.902L222.668 289.47L208.845 298.333L205.275 292.766Z" fill="white"/>
</g>
<mask id="mask33_126_4203" style="mask-type:luminance" maskUnits="userSpaceOnUse" x="138" y="216" width="41" height="42">
<path d="M155.995 216.949L178.747 234.724L160.971 257.475L138.22 239.7L155.995 216.949Z" fill="white"/>
</mask>
<g mask="url(#mask33_126_4203)">
<path d="M152.365 230.816L167.327 237.582L164.602 243.608L149.639 236.842L152.365 230.816Z" fill="white"/>
</g>
<mask id="mask34_126_4203" style="mask-type:luminance" maskUnits="userSpaceOnUse" x="313" y="200" width="41" height="42">
<path d="M313.195 222.982L331.754 200.865L353.871 219.423L335.313 241.54L313.195 222.982Z" fill="white"/>
</mask>
<g mask="url(#mask34_126_4203)">
<path d="M326.927 227.094L334.211 212.377L340.139 215.311L332.855 230.028L326.927 227.094Z" fill="white"/>
</g>
<mask id="mask35_126_4203" style="mask-type:luminance" maskUnits="userSpaceOnUse" x="237" y="265" width="41" height="40">
<path d="M237.643 279.896L262.391 265.026L277.261 289.774L252.513 304.645L237.643 279.896Z" fill="white"/>
</mask>
<g mask="url(#mask35_126_4203)">
<path d="M249.287 288.256L260.966 276.712L265.616 281.415L253.937 292.959L249.287 288.256Z" fill="white"/>
</g>
<mask id="mask36_126_4203" style="mask-type:luminance" maskUnits="userSpaceOnUse" x="122" y="228" width="18" height="19">
<path d="M122.409 228.839H139.966V246.396H122.409V228.839Z" fill="white"/>
</mask>
<g mask="url(#mask36_126_4203)">
<path d="M135.105 237.617C135.105 239.781 133.351 241.535 131.187 241.535C129.024 241.535 127.27 239.781 127.27 237.617C127.27 235.454 129.024 233.7 131.187 233.7C133.351 233.7 135.105 235.454 135.105 237.617Z" fill="#1C8D57"/>
</g>
<mask id="mask37_126_4203" style="mask-type:luminance" maskUnits="userSpaceOnUse" x="279" y="227" width="30" height="29">
<path d="M279.652 227.43H308.134V255.911H279.652V227.43Z" fill="white"/>
</mask>
<g mask="url(#mask37_126_4203)">
<path d="M300.249 241.67C300.249 245.181 297.403 248.026 293.893 248.026C290.382 248.026 287.537 245.181 287.537 241.67C287.537 238.16 290.382 235.315 293.893 235.315C297.403 235.315 300.249 238.16 300.249 241.67Z" fill="#1C8D57"/>
</g>
<mask id="mask38_126_4203" style="mask-type:luminance" maskUnits="userSpaceOnUse" x="172" y="261" width="38" height="38">
<path d="M172.225 273.381L197.684 261.509L209.556 286.968L184.097 298.84L172.225 273.381Z" fill="white"/>
</mask>
<g mask="url(#mask38_126_4203)">
<path d="M189.673 286.822L191.737 282.87L195.689 284.934L197.538 281.392L193.586 279.328L195.65 275.376L192.108 273.526L190.044 277.479L186.092 275.415L184.242 278.957L188.195 281.021L186.131 284.973L189.673 286.822Z" fill="#E16104"/>
</g>
<mask id="mask39_126_4203" style="mask-type:luminance" maskUnits="userSpaceOnUse" x="169" y="210" width="31" height="30">
<path d="M169.799 224.014L185.7 210.191L199.522 226.092L183.621 239.914L169.799 224.014Z" fill="white"/>
</mask>
<g mask="url(#mask39_126_4203)">
<path d="M186.523 229.284C184.857 228.622 184.044 226.736 184.705 225.071C185.367 223.406 187.253 222.592 188.918 223.254L190.151 220.149C186.771 218.806 182.943 220.458 181.6 223.838C180.258 227.217 181.91 231.046 185.29 232.388L186.523 229.284Z" fill="#FFBB0D"/>
</g>
<mask id="mask40_126_4203" style="mask-type:luminance" maskUnits="userSpaceOnUse" x="266" y="193" width="26" height="26">
<path d="M270.931 193.307L291.539 197.687L287.159 218.295L266.551 213.915L270.931 193.307Z" fill="white"/>
</mask>
<g mask="url(#mask40_126_4203)">
<path d="M276.787 209.834C276.313 208.106 277.33 206.321 279.058 205.847C280.786 205.374 282.571 206.39 283.045 208.118L286.266 207.235C285.305 203.727 281.682 201.664 278.174 202.626C274.667 203.587 272.604 207.211 273.565 210.718L276.787 209.834Z" fill="#FFBB0D"/>
</g>
<mask id="mask41_126_4203" style="mask-type:luminance" maskUnits="userSpaceOnUse" x="148" y="238" width="41" height="41">
<path d="M188.993 254.039L173.486 278.854L148.67 263.348L164.177 238.532L188.993 254.039Z" fill="white"/>
</mask>
<g mask="url(#mask41_126_4203)">
<path d="M175.549 259.286L165.127 252.079L164.097 264.708L175.549 259.286Z" fill="#28B594"/>
</g>
<mask id="mask42_126_4203" style="mask-type:luminance" maskUnits="userSpaceOnUse" x="164" y="187" width="43" height="43">
<path d="M206.261 196.394L196.905 229.023L164.276 219.667L173.632 187.037L206.261 196.394Z" fill="white"/>
</mask>
<g mask="url(#mask42_126_4203)">
<path d="M192.949 206.543L179.024 201.84L181.913 216.251L192.949 206.543Z" fill="#28B594"/>
</g>
<mask id="mask43_126_4203" style="mask-type:luminance" maskUnits="userSpaceOnUse" x="286" y="194" width="38" height="38">
<path d="M323.658 213.096L305.174 231.581L286.69 213.096L305.174 194.612L323.658 213.096Z" fill="white"/>
</mask>
<g mask="url(#mask43_126_4203)">
<path d="M310.902 214.962L303.279 206.595L299.844 217.381L310.902 214.962Z" fill="#28B594"/>
</g>
<mask id="mask44_126_4203" style="mask-type:luminance" maskUnits="userSpaceOnUse" x="263" y="242" width="39" height="39">
<path d="M292.363 242.603L301.646 271.175L273.074 280.458L263.791 251.886L292.363 242.603Z" fill="white"/>
</mask>
<g mask="url(#mask44_126_4203)">
<path d="M287.618 256.638L275.073 260.079L284.325 269.223L287.618 256.638Z" fill="#28B594"/>
</g>
<mask id="mask45_126_4203" style="mask-type:luminance" maskUnits="userSpaceOnUse" x="234" y="195" width="61" height="61">
<path d="M268.478 195.611L294.66 229.123L261.148 255.306L234.965 221.793L268.478 195.611Z" fill="white"/>
</mask>
<g mask="url(#mask45_126_4203)">
<path d="M268.962 216.579L253.939 227.229L270.674 234.914L268.962 216.579Z" fill="#28B594"/>
</g>
<path d="M164.766 377.253C163.752 377.253 162.795 377.725 162.178 378.53L151.305 392.726L147.397 393.247L147.375 398.782L147.38 398.783C147.294 400.528 148.647 402.213 150.64 402.213H228.665V377.253H164.766Z" fill="#1C8D57"/>
<path d="M228.665 371.105H164.766C163.752 371.105 162.795 371.578 162.178 372.383L148.052 390.825C146.41 392.969 147.939 396.066 150.64 396.066H228.665V371.105Z" fill="#1C8D57"/>
<path d="M228.665 371.105H164.766C163.752 371.105 162.795 371.578 162.178 372.383L148.052 390.825C146.41 392.969 147.939 396.066 150.64 396.066H228.665V371.105Z" fill="white" fill-opacity="0.4"/>
<path d="M186.845 352.862C185.831 352.862 184.875 353.334 184.258 354.139L169.477 356.181L169.454 383.228L169.46 383.229C169.374 384.974 170.727 386.66 172.719 386.66H230.799V352.862H186.845Z" fill="#1C8D57"/>
<path d="M230.799 334.234H186.845C185.831 334.234 184.875 334.707 184.258 335.512L170.132 353.954C168.49 356.098 170.018 359.194 172.719 359.194H230.799V334.234Z" fill="#1C8D57"/>
<path d="M230.799 334.234H186.845C185.831 334.234 184.875 334.707 184.258 335.512L170.132 353.954C168.49 356.098 170.018 359.194 172.719 359.194H230.799V334.234Z" fill="white" fill-opacity="0.4"/>
<path d="M292.564 377.253C293.578 377.253 294.534 377.725 295.151 378.53L306.024 392.726L309.933 393.247L309.955 398.782L309.949 398.783C310.035 400.528 308.683 402.213 306.69 402.213H228.665V377.253H292.564Z" fill="#1C8D57"/>
<path d="M228.665 371.105H292.563C293.577 371.105 294.534 371.578 295.151 372.383L309.276 390.825C310.919 392.969 309.39 396.066 306.69 396.066H228.665V371.105Z" fill="#1C8D57"/>
<path d="M228.665 371.105H292.563C293.577 371.105 294.534 371.578 295.151 372.383L309.276 390.825C310.919 392.969 309.39 396.066 306.69 396.066H228.665V371.105Z" fill="white" fill-opacity="0.4"/>
<path d="M270.484 352.862C271.498 352.862 272.454 353.334 273.071 354.139L287.853 356.181L287.875 383.228L287.869 383.229C287.956 384.974 286.603 386.66 284.61 386.66H226.53V352.862H270.484Z" fill="#1C8D57"/>
<path d="M226.53 334.234H270.484C271.498 334.234 272.454 334.707 273.07 335.512L287.197 353.954C288.839 356.098 287.31 359.194 284.61 359.194H226.53V334.234Z" fill="#1C8D57"/>
<path d="M226.53 334.234H270.484C271.498 334.234 272.454 334.707 273.07 335.512L287.197 353.954C288.839 356.098 287.31 359.194 284.61 359.194H226.53V334.234Z" fill="white" fill-opacity="0.4"/>
<path d="M194.026 331.701C193.012 331.701 192.056 332.173 191.439 332.978L180.566 347.174L176.658 347.695L176.635 353.229L176.641 353.23C176.555 354.975 177.907 356.661 179.9 356.661H228.664V331.701H194.026Z" fill="#1C8D57"/>
<path d="M263.303 331.701C264.317 331.701 265.273 332.173 265.89 332.978L276.763 347.174L280.672 347.695L280.694 353.229L280.688 353.23C280.774 354.975 279.422 356.661 277.429 356.661H228.665V331.701H263.303Z" fill="#1C8D57"/>
<path d="M228.665 325.553H194.026C193.012 325.553 192.056 326.025 191.439 326.83L177.313 345.272C175.671 347.416 177.199 350.513 179.9 350.513H228.665V325.553Z" fill="#1C8D57"/>
<path d="M228.665 325.553H194.026C193.012 325.553 192.056 326.025 191.439 326.83L177.313 345.272C175.671 347.416 177.199 350.513 179.9 350.513H228.665V325.553Z" fill="white" fill-opacity="0.4"/>
<path d="M228.665 325.553H263.303C264.317 325.553 265.273 326.025 265.89 326.83L280.016 345.272C281.659 347.416 280.13 350.513 277.429 350.513H228.665V325.553Z" fill="#1C8D57"/>
<path d="M228.665 325.553H263.303C264.317 325.553 265.273 326.025 265.89 326.83L280.016 345.272C281.659 347.416 280.13 350.513 277.429 350.513H228.665V325.553Z" fill="white" fill-opacity="0.4"/>
<path d="M207.588 356.661H190.533V350.513H207.588V356.661Z" fill="white" fill-opacity="0.3"/>
<path d="M192.418 402.213H175.484V396.065H192.418V402.213Z" fill="white" fill-opacity="0.3"/>
<path d="M202.65 386.659H185.596V359.194H202.65V386.659Z" fill="white" fill-opacity="0.3"/>
<path d="M175.484 396.065L185.656 386.66H202.59L192.418 396.065H175.484Z" fill="white" fill-opacity="0.3"/>
<path d="M190.535 356.661L185.596 359.194H202.65L207.588 356.661H190.535Z" fill="white" fill-opacity="0.3"/>
<path d="M227.999 113.63C170.462 113.63 162.323 126.976 162.323 136.019C162.323 171.464 185.604 279.581 227.999 279.581C270.395 279.581 293.676 171.464 293.676 136.019C293.676 126.976 285.536 113.63 227.999 113.63Z" fill="#FFBB0D"/>
<path d="M319.064 153.173C313.214 149.111 305.802 148.337 299.239 151.101L292.404 153.979C292.404 153.979 291.135 162.73 290.123 169.295C289.11 175.86 286.046 189.089 286.046 189.089C286.046 189.089 289.051 170.878 302.778 163.674L304.269 163.046C306.757 161.999 309.455 162.281 311.672 163.82C313.889 165.36 315.097 167.789 314.985 170.486L314.447 183.44C314.092 192.007 311.222 200.189 306.148 207.102C301.075 214.014 294.129 219.204 286.062 222.111L277.939 225.039C267.639 228.751 262.008 239.881 265.119 250.378L267.178 257.325C268.013 260.143 270.593 261.966 273.389 261.966C273.999 261.966 274.619 261.879 275.233 261.697C278.665 260.68 280.623 257.073 279.605 253.642L277.546 246.695C276.385 242.775 278.487 238.619 282.334 237.233L290.457 234.305C300.955 230.522 309.994 223.767 316.597 214.771C323.2 205.776 326.935 195.127 327.398 183.977L327.936 171.023C328.231 163.908 324.914 157.235 319.064 153.173Z" fill="#FFBB0D"/>
<path d="M136.935 153.173C142.785 149.111 150.196 148.337 156.76 151.101L163.594 153.979C163.594 153.979 164.864 162.73 165.877 169.295C166.889 175.86 169.953 189.089 169.953 189.089C169.953 189.089 166.948 170.878 153.221 163.674L151.73 163.046C149.242 161.999 146.544 162.281 144.327 163.82C142.11 165.36 140.902 167.789 141.014 170.486L141.551 183.44C141.907 192.007 144.777 200.189 149.851 207.102C154.925 214.014 161.87 219.204 169.936 222.111L178.06 225.039C188.36 228.751 193.991 239.881 190.88 250.378L188.821 257.325C187.986 260.143 185.406 261.966 182.61 261.966C182 261.966 181.38 261.879 180.765 261.697C177.334 260.68 175.376 257.073 176.394 253.642L178.452 246.695C179.614 242.775 177.511 238.619 173.665 237.233L165.542 234.305C155.044 230.522 146.005 223.767 139.402 214.771C132.799 205.776 129.064 195.127 128.601 183.977L128.064 171.023C127.768 163.908 131.085 157.235 136.935 153.173Z" fill="#FFBB0D"/>
<path d="M214.034 261.966C214.034 261.966 174.223 212.101 174.921 140.491C174.947 137.88 176.703 135.603 179.219 134.908C182.946 133.88 186.631 136.681 186.629 140.547C186.625 159.711 189.171 211.515 214.034 261.966Z" fill="white" fill-opacity="0.5"/>
<path d="M293.676 136.019C293.676 130.534 290.68 123.468 275.487 118.754C275.956 147.695 272.971 231.045 246.407 272.392C277.084 247.657 293.676 165.941 293.676 136.019Z" fill="black" fill-opacity="0.15"/>
<path d="M263.085 340.117C263.222 339.932 263.332 339.737 263.412 339.534C263.418 339.519 263.425 339.505 263.43 339.491C263.466 339.393 263.496 339.294 263.519 339.192L263.531 339.135C263.551 339.033 263.567 338.929 263.574 338.822C263.575 338.806 263.575 338.789 263.576 338.773C263.582 338.66 263.582 338.545 263.572 338.428L263.581 334.778L261.267 334.409C259.165 332.121 255.568 329.239 250.221 325.553L227.999 329.099L205.778 325.553C200.431 329.239 196.834 332.121 194.732 334.409L192.417 334.778L192.426 338.428C192.417 338.545 192.417 338.66 192.423 338.773C192.423 338.789 192.424 338.806 192.425 338.822C192.432 338.929 192.447 339.033 192.468 339.135C192.472 339.154 192.476 339.173 192.48 339.192C192.503 339.294 192.532 339.393 192.569 339.491C192.574 339.505 192.581 339.519 192.586 339.534C192.667 339.737 192.776 339.932 192.914 340.117C192.924 340.13 192.933 340.144 192.944 340.157C193.011 340.245 193.085 340.331 193.165 340.415C193.18 340.431 193.195 340.447 193.21 340.462C193.292 340.546 193.38 340.627 193.474 340.707C193.488 340.72 193.503 340.732 193.518 340.744C193.72 340.911 193.949 341.07 194.204 341.222C194.222 341.234 194.24 341.245 194.259 341.255C194.382 341.327 194.512 341.398 194.647 341.468C194.672 341.48 194.697 341.493 194.722 341.506C194.86 341.575 195.001 341.642 195.15 341.709C195.172 341.718 195.195 341.728 195.217 341.738C195.533 341.876 195.873 342.008 196.238 342.135C196.264 342.144 196.289 342.153 196.315 342.162C196.49 342.222 196.672 342.28 196.858 342.338C196.893 342.349 196.927 342.36 196.962 342.371C197.15 342.429 197.342 342.484 197.541 342.54C197.57 342.548 197.601 342.557 197.632 342.565C197.841 342.623 198.055 342.679 198.276 342.735C206.059 344.695 218.757 344.902 227.196 344.913C227.469 344.913 227.736 344.913 227.999 344.913C228.262 344.913 228.53 344.913 228.802 344.913C237.242 344.902 249.94 344.695 257.723 342.735C257.944 342.679 258.158 342.623 258.368 342.565C258.397 342.557 258.429 342.548 258.459 342.54C258.657 342.484 258.849 342.429 259.036 342.371C259.071 342.36 259.106 342.349 259.141 342.338C259.327 342.28 259.509 342.222 259.684 342.162C259.71 342.153 259.735 342.144 259.761 342.135C260.125 342.008 260.466 341.876 260.782 341.738C260.804 341.728 260.826 341.718 260.848 341.709C260.997 341.642 261.14 341.575 261.277 341.506C261.301 341.493 261.327 341.48 261.352 341.468C261.487 341.398 261.617 341.327 261.74 341.255C261.759 341.245 261.776 341.234 261.794 341.222C262.05 341.07 262.279 340.911 262.481 340.744C262.495 340.732 262.511 340.72 262.525 340.708C262.619 340.627 262.706 340.546 262.789 340.462C262.804 340.447 262.819 340.431 262.834 340.415C262.914 340.331 262.988 340.245 263.056 340.157C263.065 340.144 263.075 340.13 263.085 340.117Z" fill="#FFBB0D"/>
<path d="M241.478 282.25H214.521C211.799 282.25 209.593 280.043 209.593 277.321C209.593 274.599 211.799 272.391 214.521 272.391H241.478C244.2 272.391 246.406 274.599 246.406 277.321C246.406 280.043 244.2 282.25 241.478 282.25Z" fill="#FFBB0D"/>
<path d="M250.221 321.427C232.108 308.942 239.089 282.25 239.089 282.25H227.999H216.909C216.909 282.25 223.891 308.942 205.778 321.427C189.584 332.589 189.438 336.383 198.276 338.608C206.31 340.631 219.581 340.787 227.999 340.787C236.418 340.787 249.689 340.631 257.723 338.608C266.561 336.383 266.415 332.589 250.221 321.427Z" fill="#FFBB0D"/>
<path d="M220.73 289.224C220.73 289.224 224.161 313.245 207.517 325.3C205.924 326.455 206.713 328.964 208.68 328.964H208.72C209.19 328.964 209.645 328.802 210.006 328.501C212.793 326.182 224.275 314.923 220.73 289.224Z" fill="white" fill-opacity="0.5"/>
<path d="M263.581 334.778L263.567 334.775C263.837 332.13 259.891 328.092 250.221 321.426C232.11 308.943 239.088 282.255 239.089 282.251C239.088 282.253 225.886 315.037 255.721 333.274C258.927 335.233 258.965 340.786 257.723 342.735C257.746 342.725 260.827 341.718 260.848 341.708C260.997 341.642 261.139 341.575 261.277 341.506C261.302 341.493 261.326 341.48 261.351 341.468C261.486 341.398 261.617 341.328 261.74 341.256C261.758 341.245 261.776 341.233 261.794 341.222C262.049 341.069 262.278 340.91 262.48 340.744C262.495 340.732 262.51 340.719 262.524 340.708C262.619 340.627 262.706 340.546 262.789 340.462C262.804 340.447 262.819 340.431 262.833 340.415C262.914 340.331 262.988 340.245 263.055 340.157C263.065 340.144 263.074 340.13 263.084 340.117C263.222 339.931 263.331 339.737 263.412 339.534C263.418 339.519 263.424 339.505 263.43 339.49C263.466 339.393 263.495 339.293 263.519 339.192L263.531 339.135C263.552 339.033 263.566 338.928 263.574 338.822C263.575 338.806 263.575 338.789 263.576 338.773C263.582 338.66 263.582 338.545 263.572 338.428L263.581 334.778Z" fill="black" fill-opacity="0.15"/>
<path d="M228 336.655C228 336.655 208.719 335.762 199.639 332.394C199.256 332.252 198.836 332.511 198.645 332.872C198.323 333.482 198.767 334.094 199.442 334.234C204.247 335.233 215.051 337.741 228 336.655Z" fill="white" fill-opacity="0.5"/>
</g>
</g>
<defs>
<clipPath id="clip0_126_4203">
<rect width="456" height="456" fill="white"/>
</clipPath>
</defs>
</svg>
