<svg width="165" height="39" viewBox="0 0 165 39" fill="none" xmlns="http://www.w3.org/2000/svg">
<g clip-path="url(#clip0_2197_222)">
<path fill-rule="evenodd" clip-rule="evenodd" d="M9.76443 2.4375V39H0V2.4375H9.76443Z" fill="white"/>
<path fill-rule="evenodd" clip-rule="evenodd" d="M14.6465 2.4375H35.3959C42.1369 2.4375 47.6015 7.89403 47.6015 14.625C47.6015 21.356 42.1369 26.8125 35.3959 26.8125H24.4109V39H14.6465V2.4375ZM24.4109 17.0625H35.3959C36.7442 17.0625 37.8371 15.9712 37.8371 14.625C37.8371 13.2788 36.7442 12.1875 35.3959 12.1875H24.4109V17.0625Z" fill="white"/>
<path fill-rule="evenodd" clip-rule="evenodd" d="M84.2185 2.4375V21.3281C84.2185 25.7032 87.7705 29.25 92.1521 29.25C96.5338 29.25 100.086 25.7032 100.086 21.3281V2.4375H109.851V21.3281C109.851 31.0881 101.927 39 92.1521 39C82.3777 39 74.4541 31.0881 74.4541 21.3281V2.4375H84.2185Z" fill="white"/>
<path fill-rule="evenodd" clip-rule="evenodd" d="M51.2635 19.5C51.2635 10.0766 58.9139 2.4375 68.3512 2.4375H70.7923V12.1875H68.3512C64.3066 12.1875 61.0279 15.4615 61.0279 19.5V20.7188C61.0279 30.8152 52.831 39 42.7195 39H41.499V29.25H42.7195C47.4382 29.25 51.2635 25.4304 51.2635 20.7188V19.5Z" fill="white"/>
<path d="M164.775 3.65625C164.775 5.67554 163.136 7.3125 161.113 7.3125C159.091 7.3125 157.452 5.67554 157.452 3.65625C157.452 1.63696 159.091 0 161.113 0C163.136 0 164.775 1.63696 164.775 3.65625Z" fill="white"/>
<path d="M120.334 39.0001L124.994 19.5178L128.458 31.2384C130.523 38.229 140.44 38.229 142.506 31.2384L145.969 19.5178L150.629 39.0001H160.667L153.341 8.36511C151.599 1.07986 141.317 0.810119 139.194 7.99404L135.482 20.5563L131.769 7.99405C129.647 0.810161 119.364 1.07982 117.622 8.3651L110.296 39.0001H120.334Z" fill="white"/>
</g>
<defs>
<clipPath id="clip0_2197_222">
<rect width="164.775" height="39" fill="white"/>
</clipPath>
</defs>
</svg>
